<svg id="visual" viewBox="0 0 1920 1080" width="1920" height="1080" xmlns="http://www.w3.org/2000/svg" xmlns:xlink="http://www.w3.org/1999/xlink" version="1.1"><g stroke-width="1" stroke-linejoin="bevel"><path d="M839.3 544L835.3 359L630 516Z" fill="#e04349" stroke="#e04349"></path><path d="M835.3 359L638 325L630 516Z" fill="#c83459" stroke="#c83459"></path><path d="M814.3 202L666 210L638 325Z" fill="#46295a" stroke="#46295a"></path><path d="M835.3 359L814.3 202L638 325Z" fill="#8a2c67" stroke="#8a2c67"></path><path d="M424.7 506L619 690L630 516Z" fill="#8a2c67" stroke="#8a2c67"></path><path d="M630 516L619 690L839.3 544Z" fill="#001122" stroke="#001122"></path><path d="M619 690L849.3 729L839.3 544Z" fill="#46295a" stroke="#46295a"></path><path d="M839.3 544L1101.7 389L835.3 359Z" fill="#8a2c67" stroke="#8a2c67"></path><path d="M447.7 320L630 516L638 325Z" fill="#c83459" stroke="#c83459"></path><path d="M447.7 320L424.7 506L630 516Z" fill="#0f1c37" stroke="#0f1c37"></path><path d="M666 210L447.7 320L638 325Z" fill="#8a2c67" stroke="#8a2c67"></path><path d="M1103.7 577L1101.7 389L839.3 544Z" fill="#0f1c37" stroke="#0f1c37"></path><path d="M835.3 359L1091.7 164L814.3 202Z" fill="#c83459" stroke="#c83459"></path><path d="M849.3 729L1103.7 577L839.3 544Z" fill="#28244b" stroke="#28244b"></path><path d="M424.7 506L465.7 734L619 690Z" fill="#0f1c37" stroke="#0f1c37"></path><path d="M619 690L821.3 872L849.3 729Z" fill="#e04349" stroke="#e04349"></path><path d="M676 0L449.7 150L666 210Z" fill="#f05b34" stroke="#f05b34"></path><path d="M666 210L449.7 150L447.7 320Z" fill="#001122" stroke="#001122"></path><path d="M447.7 320L215.3 332L424.7 506Z" fill="#8a2c67" stroke="#8a2c67"></path><path d="M620 899L821.3 872L619 690Z" fill="#8a2c67" stroke="#8a2c67"></path><path d="M849.3 729L1103.7 748L1103.7 577Z" fill="#0f1c37" stroke="#0f1c37"></path><path d="M1101.7 389L1091.7 164L835.3 359Z" fill="#8a2c67" stroke="#8a2c67"></path><path d="M814.3 202L676 0L666 210Z" fill="#ab2d63" stroke="#ab2d63"></path><path d="M833.3 0L676 0L814.3 202Z" fill="#672c64" stroke="#672c64"></path><path d="M1091.7 164L833.3 0L814.3 202Z" fill="#e04349" stroke="#e04349"></path><path d="M465.7 734L620 899L619 690Z" fill="#46295a" stroke="#46295a"></path><path d="M1086.7 898L1103.7 748L849.3 729Z" fill="#8a2c67" stroke="#8a2c67"></path><path d="M1103.7 577L1242 547L1101.7 389Z" fill="#0f1c37" stroke="#0f1c37"></path><path d="M1101.7 389L1253 205L1091.7 164Z" fill="#e04349" stroke="#e04349"></path><path d="M1277 697L1242 547L1103.7 577Z" fill="#0f1c37" stroke="#0f1c37"></path><path d="M194.3 189L215.3 332L447.7 320Z" fill="#672c64" stroke="#672c64"></path><path d="M424.7 506L182.3 686L465.7 734Z" fill="#46295a" stroke="#46295a"></path><path d="M1242 547L1282 334L1101.7 389Z" fill="#001122" stroke="#001122"></path><path d="M821.3 872L1086.7 898L849.3 729Z" fill="#672c64" stroke="#672c64"></path><path d="M1103.7 748L1277 697L1103.7 577Z" fill="#0f1c37" stroke="#0f1c37"></path><path d="M880.3 1080L1086.7 898L821.3 872Z" fill="#ab2d63" stroke="#ab2d63"></path><path d="M1282 334L1253 205L1101.7 389Z" fill="#28244b" stroke="#28244b"></path><path d="M1091.7 164L1087.7 0L833.3 0Z" fill="#0f1c37" stroke="#0f1c37"></path><path d="M215.3 332L187.3 558L424.7 506Z" fill="#0f1c37" stroke="#0f1c37"></path><path d="M465.7 734L435.7 932L620 899Z" fill="#672c64" stroke="#672c64"></path><path d="M1287 0L1087.7 0L1091.7 164Z" fill="#0f1c37" stroke="#0f1c37"></path><path d="M225.3 882L435.7 932L465.7 734Z" fill="#f05b34" stroke="#f05b34"></path><path d="M620 899L677 1080L821.3 872Z" fill="#e04349" stroke="#e04349"></path><path d="M676 0L392.7 0L449.7 150Z" fill="#0f1c37" stroke="#0f1c37"></path><path d="M449.7 150L194.3 189L447.7 320Z" fill="#ab2d63" stroke="#ab2d63"></path><path d="M1246 891L1277 697L1103.7 748Z" fill="#0f1c37" stroke="#0f1c37"></path><path d="M1242 547L1456.3 520L1282 334Z" fill="#0f1c37" stroke="#0f1c37"></path><path d="M187.3 558L182.3 686L424.7 506Z" fill="#8a2c67" stroke="#8a2c67"></path><path d="M392.7 0L194.3 189L449.7 150Z" fill="#46295a" stroke="#46295a"></path><path d="M0 322L0 551L187.3 558Z" fill="#28244b" stroke="#28244b"></path><path d="M187.3 558L0 551L182.3 686Z" fill="#c83459" stroke="#c83459"></path><path d="M434.7 1080L677 1080L620 899Z" fill="#0f1c37" stroke="#0f1c37"></path><path d="M677 1080L880.3 1080L821.3 872Z" fill="#28244b" stroke="#28244b"></path><path d="M1103.7 1080L1246 891L1086.7 898Z" fill="#c83459" stroke="#c83459"></path><path d="M1086.7 898L1246 891L1103.7 748Z" fill="#8a2c67" stroke="#8a2c67"></path><path d="M182.3 686L225.3 882L465.7 734Z" fill="#ab2d63" stroke="#ab2d63"></path><path d="M435.7 932L434.7 1080L620 899Z" fill="#f7770f" stroke="#f7770f"></path><path d="M220.3 1080L434.7 1080L435.7 932Z" fill="#672c64" stroke="#672c64"></path><path d="M392.7 0L203.3 0L194.3 189Z" fill="#ab2d63" stroke="#ab2d63"></path><path d="M1524.3 189L1287 0L1253 205Z" fill="#f7770f" stroke="#f7770f"></path><path d="M1253 205L1287 0L1091.7 164Z" fill="#672c64" stroke="#672c64"></path><path d="M1524.3 189L1253 205L1282 334Z" fill="#c83459" stroke="#c83459"></path><path d="M1467.3 706L1456.3 520L1277 697Z" fill="#672c64" stroke="#672c64"></path><path d="M1277 697L1456.3 520L1242 547Z" fill="#001122" stroke="#001122"></path><path d="M880.3 1080L1103.7 1080L1086.7 898Z" fill="#28244b" stroke="#28244b"></path><path d="M0 322L187.3 558L215.3 332Z" fill="#f7770f" stroke="#f7770f"></path><path d="M182.3 686L0 915L225.3 882Z" fill="#f05b34" stroke="#f05b34"></path><path d="M0 322L215.3 332L194.3 189Z" fill="#28244b" stroke="#28244b"></path><path d="M0 217L0 322L194.3 189Z" fill="#f7770f" stroke="#f7770f"></path><path d="M1468.3 918L1467.3 706L1246 891Z" fill="#e04349" stroke="#e04349"></path><path d="M1246 891L1467.3 706L1277 697Z" fill="#f05b34" stroke="#f05b34"></path><path d="M0 0L0 217L194.3 189Z" fill="#001122" stroke="#001122"></path><path d="M0 551L0 695L182.3 686Z" fill="#f7770f" stroke="#f7770f"></path><path d="M225.3 882L220.3 1080L435.7 932Z" fill="#ab2d63" stroke="#ab2d63"></path><path d="M1693.7 512L1528.3 361L1456.3 520Z" fill="#0f1c37" stroke="#0f1c37"></path><path d="M1456.3 520L1528.3 361L1282 334Z" fill="#46295a" stroke="#46295a"></path><path d="M1103.7 1080L1242 1080L1246 891Z" fill="#e04349" stroke="#e04349"></path><path d="M0 915L220.3 1080L225.3 882Z" fill="#001122" stroke="#001122"></path><path d="M1528.3 361L1524.3 189L1282 334Z" fill="#672c64" stroke="#672c64"></path><path d="M1242 1080L1468.3 918L1246 891Z" fill="#f7770f" stroke="#f7770f"></path><path d="M1467.3 706L1693.7 512L1456.3 520Z" fill="#ab2d63" stroke="#ab2d63"></path><path d="M203.3 0L0 0L194.3 189Z" fill="#28244b" stroke="#28244b"></path><path d="M0 695L0 915L182.3 686Z" fill="#ab2d63" stroke="#ab2d63"></path><path d="M1524.3 189L1514.3 0L1287 0Z" fill="#001122" stroke="#001122"></path><path d="M1738.7 721L1693.7 512L1467.3 706Z" fill="#f7770f" stroke="#f7770f"></path><path d="M1528.3 361L1698.7 364L1524.3 189Z" fill="#f7770f" stroke="#f7770f"></path><path d="M1524.3 189L1677.7 141L1514.3 0Z" fill="#e04349" stroke="#e04349"></path><path d="M1242 1080L1460.3 1080L1468.3 918Z" fill="#672c64" stroke="#672c64"></path><path d="M1732.7 906L1738.7 721L1467.3 706Z" fill="#8a2c67" stroke="#8a2c67"></path><path d="M1693.7 512L1698.7 364L1528.3 361Z" fill="#46295a" stroke="#46295a"></path><path d="M0 915L0 1080L220.3 1080Z" fill="#001122" stroke="#001122"></path><path d="M1698.7 364L1677.7 141L1524.3 189Z" fill="#672c64" stroke="#672c64"></path><path d="M1693.7 512L1920 371L1698.7 364Z" fill="#f7770f" stroke="#f7770f"></path><path d="M1920 212L1725.7 0L1677.7 141Z" fill="#46295a" stroke="#46295a"></path><path d="M1732.7 906L1467.3 706L1468.3 918Z" fill="#28244b" stroke="#28244b"></path><path d="M1920 212L1677.7 141L1698.7 364Z" fill="#e04349" stroke="#e04349"></path><path d="M1677.7 141L1725.7 0L1514.3 0Z" fill="#672c64" stroke="#672c64"></path><path d="M1695.7 1080L1732.7 906L1468.3 918Z" fill="#f05b34" stroke="#f05b34"></path><path d="M1460.3 1080L1695.7 1080L1468.3 918Z" fill="#46295a" stroke="#46295a"></path><path d="M1920 713L1920 513L1738.7 721Z" fill="#46295a" stroke="#46295a"></path><path d="M1738.7 721L1920 513L1693.7 512Z" fill="#28244b" stroke="#28244b"></path><path d="M1920 713L1738.7 721L1732.7 906Z" fill="#8a2c67" stroke="#8a2c67"></path><path d="M1920 513L1920 371L1693.7 512Z" fill="#28244b" stroke="#28244b"></path><path d="M1920 371L1920 212L1698.7 364Z" fill="#28244b" stroke="#28244b"></path><path d="M1920 923L1920 713L1732.7 906Z" fill="#e04349" stroke="#e04349"></path><path d="M1920 212L1920 0L1725.7 0Z" fill="#ab2d63" stroke="#ab2d63"></path><path d="M1920 1080L1920 923L1732.7 906Z" fill="#e04349" stroke="#e04349"></path><path d="M1695.7 1080L1920 1080L1732.7 906Z" fill="#f7770f" stroke="#f7770f"></path></g></svg>